<?xml version="1.0" encoding="UTF-8"?>
<svg id="gmail-icon" data-name="Capa 1" xmlns="http://www.w3.org/2000/svg" viewBox="0 0 16 16">
  <path d="M13.33,0H2.67C1.2,0,0,1.2,0,2.67v10.67c0,1.47,1.2,2.67,2.67,2.67h10.67c1.47,0,2.67-1.2,2.67-2.67V2.67c0-1.47-1.2-2.67-2.67-2.67ZM4,4h8c.14,0,.28.03.41.09l-4.41,5.14L3.59,4.09c.13-.06.27-.09.41-.09ZM3,11v-6s0-.04,0-.06l2.93,3.42-2.9,2.9c-.02-.08-.03-.17-.03-.26ZM12,12H4c-.09,0-.18-.01-.26-.03l2.85-2.85,1.41,1.65,1.41-1.65,2.85,2.85c-.08.02-.17.03-.26.03h0ZM13,11c0,.09-.01.17-.03.26l-2.9-2.9,2.93-3.42s0,.04,0,.06v6Z" style="fill: #37a0d4; stroke-width: 0px;"/>
</svg>
